<svg width="186" height="41" viewBox="0 0 186 41" fill="none" xmlns="http://www.w3.org/2000/svg">
<g clip-path="url(#clip0_13_883)">
<path d="M45.5409 2.42565H54.2778L42.6468 40.1456H34.183L27.4665 15.5456L20.6954 40.1456H12.2862L0.600586 2.42565H9.55589L16.7092 28.5016L23.8625 2.42565H31.2889L38.4422 28.5016L45.5409 2.42565ZM73.9797 12.2656H81.9521V40.1456H73.9797V37.3576C71.8501 39.5443 68.956 40.8016 65.5705 40.8016C57.9257 40.8016 52.1375 34.515 52.1375 26.2056C52.1375 17.8963 57.9257 11.6096 65.5705 11.6096C68.956 11.6096 71.8501 12.867 73.9797 15.0536V12.2656ZM67.154 33.0936C71.0856 33.0936 73.9797 30.1416 73.9797 26.2056C73.9797 22.2696 71.0856 19.3176 67.154 19.3176C63.277 19.3176 60.3829 22.2696 60.3829 26.2056C60.3829 30.1416 63.277 33.0936 67.154 33.0936ZM104.711 11.6096C111.1 11.6096 115.359 15.819 115.359 22.215V40.1456H107.387V24.8936C107.387 21.5043 105.257 19.3176 101.981 19.3176C98.5953 19.3176 96.2472 21.559 96.2472 25.003V40.1456H88.2748V12.2656H96.2472V15.0536C98.4315 12.8123 101.271 11.6096 104.711 11.6096ZM141.49 0.785645H149.463V40.1456H141.49V37.3576C139.361 39.5443 136.467 40.8016 133.081 40.8016C125.436 40.8016 119.648 34.515 119.648 26.2056C119.648 17.8963 125.436 11.6096 133.081 11.6096C136.467 11.6096 139.361 12.867 141.49 15.0536V0.785645ZM134.665 33.0936C138.596 33.0936 141.49 30.1416 141.49 26.2056C141.49 22.2696 138.596 19.3176 134.665 19.3176C130.788 19.3176 127.894 22.2696 127.894 26.2056C127.894 30.1416 130.788 33.0936 134.665 33.0936ZM171.293 11.8283H172.494V20.0283H171.293C166.433 20.0283 163.758 22.8163 163.758 27.135V40.1456H155.785V12.2656H163.758V15.4363C165.723 13.1403 168.29 11.8283 171.293 11.8283Z" fill="white"/>
<path d="M180.355 40.6926C177.243 40.6926 174.895 38.342 174.895 35.226C174.895 32.1646 177.243 29.814 180.355 29.814C183.522 29.814 185.87 32.1646 185.87 35.226C185.87 38.342 183.522 40.6926 180.355 40.6926Z" fill="#D87142"/>
</g>
<defs>
<clipPath id="clip0_13_883">
<rect width="186" height="41" fill="white"/>
</clipPath>
</defs>
</svg>
