<svg width="218" height="48" viewBox="0 0 218 48" fill="none" xmlns="http://www.w3.org/2000/svg">
<path d="M53.376 2.84H63.616L49.984 47H40.064L32.192 18.2L24.256 47H14.4L0.704 2.84H11.2L19.584 33.368L27.968 2.84H36.672L45.056 33.368L53.376 2.84ZM86.7075 14.36H96.0515V47H86.7075V43.736C84.2115 46.296 80.8195 47.768 76.8515 47.768C67.8915 47.768 61.1075 40.408 61.1075 30.68C61.1075 20.952 67.8915 13.592 76.8515 13.592C80.8195 13.592 84.2115 15.064 86.7075 17.624V14.36ZM78.7075 38.744C83.3155 38.744 86.7075 35.288 86.7075 30.68C86.7075 26.072 83.3155 22.616 78.7075 22.616C74.1635 22.616 70.7715 26.072 70.7715 30.68C70.7715 35.288 74.1635 38.744 78.7075 38.744ZM122.726 13.592C130.214 13.592 135.206 18.52 135.206 26.008V47H125.862V29.144C125.862 25.176 123.366 22.616 119.526 22.616C115.558 22.616 112.806 25.24 112.806 29.272V47H103.462V14.36H112.806V17.624C115.366 15 118.694 13.592 122.726 13.592ZM165.833 0.919998H175.177V47H165.833V43.736C163.337 46.296 159.945 47.768 155.977 47.768C147.017 47.768 140.233 40.408 140.233 30.68C140.233 20.952 147.017 13.592 155.977 13.592C159.945 13.592 163.337 15.064 165.833 17.624V0.919998ZM157.833 38.744C162.441 38.744 165.833 35.288 165.833 30.68C165.833 26.072 162.441 22.616 157.833 22.616C153.289 22.616 149.897 26.072 149.897 30.68C149.897 35.288 153.289 38.744 157.833 38.744ZM200.763 13.848H202.171V23.448H200.763C195.067 23.448 191.931 26.712 191.931 31.768V47H182.587V14.36H191.931V18.072C194.235 15.384 197.243 13.848 200.763 13.848Z" fill="#2A392A"/>
<path d="M211.384 47.64C207.736 47.64 204.984 44.888 204.984 41.24C204.984 37.656 207.736 34.904 211.384 34.904C215.096 34.904 217.848 37.656 217.848 41.24C217.848 44.888 215.096 47.64 211.384 47.64Z" fill="#D87142"/>
</svg>
